<mxfile host="app.diagrams.net" modified="2024-03-22T09:18:19.607Z" agent="Mozilla/5.0 (Windows NT 10.0; Win64; x64; rv:124.0) Gecko/20100101 Firefox/124.0" etag="cpDIl4lVEo__kxb8o6iR" version="24.0.7" type="github">
  <diagram name="Seite-1" id="6gxdTBmL8TGbMSP7SJqH">
    <mxGraphModel dx="1195" dy="652" grid="1" gridSize="10" guides="1" tooltips="1" connect="1" arrows="1" fold="1" page="1" pageScale="1" pageWidth="827" pageHeight="1169" math="0" shadow="0">
      <root>
        <mxCell id="0" />
        <mxCell id="1" parent="0" />
        <mxCell id="WPLre637juEGtwonLbd3-1" value="" style="ellipse;whiteSpace=wrap;html=1;aspect=fixed;" vertex="1" parent="1">
          <mxGeometry x="40" y="360" width="80" height="80" as="geometry" />
        </mxCell>
        <mxCell id="WPLre637juEGtwonLbd3-2" value="i" style="text;html=1;strokeColor=none;fillColor=none;align=center;verticalAlign=middle;whiteSpace=wrap;rounded=0;fontSize=20;" vertex="1" parent="1">
          <mxGeometry x="20" y="420" width="60" height="40" as="geometry" />
        </mxCell>
        <mxCell id="WPLre637juEGtwonLbd3-3" value="Ï†" style="rounded=0;whiteSpace=wrap;html=1;fontSize=40;" vertex="1" parent="1">
          <mxGeometry x="160" y="360" width="80" height="80" as="geometry" />
        </mxCell>
        <mxCell id="WPLre637juEGtwonLbd3-4" value="" style="endArrow=classic;html=1;rounded=0;curved=1;exitX=1;exitY=0.5;exitDx=0;exitDy=0;" edge="1" parent="1">
          <mxGeometry width="50" height="50" relative="1" as="geometry">
            <mxPoint x="120" y="399.76" as="sourcePoint" />
            <mxPoint x="160" y="399.76" as="targetPoint" />
          </mxGeometry>
        </mxCell>
        <mxCell id="WPLre637juEGtwonLbd3-5" value="" style="ellipse;whiteSpace=wrap;html=1;aspect=fixed;" vertex="1" parent="1">
          <mxGeometry x="280" y="360" width="80" height="80" as="geometry" />
        </mxCell>
        <mxCell id="WPLre637juEGtwonLbd3-6" value="s&lt;sub&gt;1&lt;/sub&gt;" style="text;html=1;strokeColor=none;fillColor=none;align=center;verticalAlign=middle;whiteSpace=wrap;rounded=0;fontSize=20;" vertex="1" parent="1">
          <mxGeometry x="260" y="420" width="60" height="40" as="geometry" />
        </mxCell>
        <mxCell id="WPLre637juEGtwonLbd3-7" value="" style="endArrow=classic;html=1;rounded=0;curved=1;exitX=1;exitY=0.5;exitDx=0;exitDy=0;" edge="1" parent="1">
          <mxGeometry width="50" height="50" relative="1" as="geometry">
            <mxPoint x="240" y="399.76" as="sourcePoint" />
            <mxPoint x="280" y="399.76" as="targetPoint" />
          </mxGeometry>
        </mxCell>
        <mxCell id="WPLre637juEGtwonLbd3-10" value="" style="ellipse;whiteSpace=wrap;html=1;aspect=fixed;fillColor=#000000;" vertex="1" parent="1">
          <mxGeometry x="75" y="395" width="10" height="10" as="geometry" />
        </mxCell>
        <mxCell id="WPLre637juEGtwonLbd3-11" value="A" style="rounded=0;whiteSpace=wrap;html=1;fontSize=44;" vertex="1" parent="1">
          <mxGeometry x="400" y="360" width="80" height="80" as="geometry" />
        </mxCell>
        <mxCell id="WPLre637juEGtwonLbd3-12" value="" style="endArrow=classic;html=1;rounded=0;curved=1;exitX=1;exitY=0.5;exitDx=0;exitDy=0;" edge="1" parent="1">
          <mxGeometry width="50" height="50" relative="1" as="geometry">
            <mxPoint x="360" y="399.58" as="sourcePoint" />
            <mxPoint x="400" y="399.58" as="targetPoint" />
          </mxGeometry>
        </mxCell>
        <mxCell id="WPLre637juEGtwonLbd3-14" value="" style="ellipse;whiteSpace=wrap;html=1;aspect=fixed;" vertex="1" parent="1">
          <mxGeometry x="760" y="190" width="80" height="80" as="geometry" />
        </mxCell>
        <mxCell id="WPLre637juEGtwonLbd3-15" value="" style="ellipse;whiteSpace=wrap;html=1;aspect=fixed;" vertex="1" parent="1">
          <mxGeometry x="760" y="440" width="80" height="80" as="geometry" />
        </mxCell>
        <mxCell id="WPLre637juEGtwonLbd3-16" value="" style="ellipse;whiteSpace=wrap;html=1;aspect=fixed;" vertex="1" parent="1">
          <mxGeometry x="520" y="440" width="80" height="80" as="geometry" />
        </mxCell>
        <mxCell id="WPLre637juEGtwonLbd3-17" value="" style="ellipse;whiteSpace=wrap;html=1;aspect=fixed;" vertex="1" parent="1">
          <mxGeometry x="520" y="280" width="80" height="80" as="geometry" />
        </mxCell>
        <mxCell id="WPLre637juEGtwonLbd3-18" value="B" style="rounded=0;whiteSpace=wrap;html=1;fontSize=44;" vertex="1" parent="1">
          <mxGeometry x="640" y="280" width="80" height="80" as="geometry" />
        </mxCell>
        <mxCell id="WPLre637juEGtwonLbd3-19" value="C" style="rounded=0;whiteSpace=wrap;html=1;fontSize=44;" vertex="1" parent="1">
          <mxGeometry x="640" y="440" width="80" height="80" as="geometry" />
        </mxCell>
        <mxCell id="WPLre637juEGtwonLbd3-20" value="" style="ellipse;whiteSpace=wrap;html=1;aspect=fixed;" vertex="1" parent="1">
          <mxGeometry x="760" y="330" width="80" height="80" as="geometry" />
        </mxCell>
        <mxCell id="WPLre637juEGtwonLbd3-21" value="D" style="rounded=0;whiteSpace=wrap;html=1;fontSize=44;" vertex="1" parent="1">
          <mxGeometry x="880" y="190" width="80" height="80" as="geometry" />
        </mxCell>
        <mxCell id="WPLre637juEGtwonLbd3-22" value="" style="ellipse;whiteSpace=wrap;html=1;aspect=fixed;" vertex="1" parent="1">
          <mxGeometry x="1000" y="240" width="80" height="80" as="geometry" />
        </mxCell>
        <mxCell id="WPLre637juEGtwonLbd3-23" value="D" style="rounded=0;whiteSpace=wrap;html=1;fontSize=44;" vertex="1" parent="1">
          <mxGeometry x="1120" y="360" width="80" height="80" as="geometry" />
        </mxCell>
        <mxCell id="WPLre637juEGtwonLbd3-24" value="D" style="rounded=0;whiteSpace=wrap;html=1;fontSize=44;" vertex="1" parent="1">
          <mxGeometry x="880" y="440" width="80" height="80" as="geometry" />
        </mxCell>
        <mxCell id="WPLre637juEGtwonLbd3-25" value="" style="ellipse;whiteSpace=wrap;html=1;aspect=fixed;" vertex="1" parent="1">
          <mxGeometry x="1000" y="440" width="80" height="80" as="geometry" />
        </mxCell>
      </root>
    </mxGraphModel>
  </diagram>
</mxfile>
